<?xml version="1.0" encoding="UTF-8"?>
<svg width="13px" height="15px" viewBox="0 0 13 15" version="1.1" xmlns="http://www.w3.org/2000/svg" xmlns:xlink="http://www.w3.org/1999/xlink">
    <!-- Generator: Sketch 46.2 (44496) - http://www.bohemiancoding.com/sketch -->
    <title>plane</title>
    <desc>Created with Sketch.</desc>
    <defs></defs>
    <g id="Page-1" stroke="none" stroke-width="1" fill="none" fill-rule="evenodd">
        <g id="plane" fill="#000000">
            <path d="M5.5,0.782382759 C5.36206897,1.14445172 5.24137931,1.6616931 5.17241379,2.3341069 L5.17241379,4.57548621 L3.96551724,5.6616931 L3.96551724,5.43755517 L3.27586207,5.43755517 L3.27586207,6.28238276 L2.24137931,7.21341724 L2.24137931,6.81686552 L1.55172414,6.81686552 L1.55172414,7.8341069 L0,9.23065862 L0,9.60996897 L5.17241379,6.54100345 L5.17241379,6.93755517 L0,10.0065207 L0,10.0754862 L3.44827586,8.35134828 L5.17241379,7.8341069 L5.17241379,11.1272103 C5.17241379,11.2134172 5.29310345,11.7996241 5.53448276,12.6616931 L5.51724138,12.6616931 L3.96551724,14.2134172 L3.96551724,14.7306586 L6,14.2651414 C6.06896552,14.4720379 6.13793103,14.6789345 6.20689655,14.9030724 C6.27586207,14.6789345 6.34482759,14.4720379 6.4137931,14.2651414 L8.44827586,14.7306586 L8.44827586,14.2134172 L6.84482759,12.7651414 C7.10344828,11.8341069 7.24137931,11.2134172 7.24137931,11.0927276 L7.24137931,7.8341069 L8.96551724,8.35134828 L12.4137931,10.0754862 L12.4137931,10.0065207 L7.24137931,6.93755517 L7.24137931,6.54100345 L12.4137931,9.60996897 L12.4137931,9.23065862 L10.862069,7.8341069 L10.862069,6.81686552 L10.1724138,6.81686552 L10.1724138,7.21341724 L9.13793103,6.28238276 L9.13793103,5.43755517 L8.44827586,5.43755517 L8.44827586,5.6616931 L7.24137931,4.57548621 L7.24137931,2.31686552 C7.17241379,1.64445172 7.06896552,1.14445172 6.93103448,0.782382759 L5.5,0.782382759 L5.5,0.782382759 Z" id="Path"></path>
        </g>
    </g>
</svg>